<svg width="160" height="32" viewBox="0 0 160 32" fill="none" xmlns="http://www.w3.org/2000/svg">
<mask id="mask0_2006_1263" style="mask-type:alpha" maskUnits="userSpaceOnUse" x="0" y="0" width="36" height="32">
<path d="M35.0532 14.3536C35.7205 15.5094 35.7205 16.9334 35.0532 18.0893L28.1327 30.0759C27.4654 31.2318 26.2321 31.9438 24.8975 31.9438L11.0565 31.9438C9.72183 31.9438 8.48856 31.2318 7.82124 30.0759L0.900737 18.0893C0.233413 16.9334 0.233417 15.5094 0.900741 14.3536L7.82124 2.36688C8.48856 1.21105 9.72183 0.499022 11.0565 0.499022L24.8975 0.499023C26.2321 0.499023 27.4654 1.21105 28.1327 2.36688L35.0532 14.3536Z" fill="#D9D9D9"/>
</mask>
<g mask="url(#mask0_2006_1263)">
<g filter="url(#filter0_f_2006_1263)">
<path d="M26.3148 19.7054C40.5006 12.9151 15.0311 -36.3157 19.1559 -20.1939C21.8339 -9.72664 12.4874 -11.2917 13.4349 -5.51449C14.0986 -1.46781 14.2485 1.61078 13.7596 3.9769C13.1705 6.82809 13.0039 11.6581 14.3868 14.2201C16.7751 18.6451 18.4978 23.4471 26.3148 19.7054Z" fill="#D6FFF4"/>
</g>
<g filter="url(#filter1_f_2006_1263)">
<path d="M-6.45675 -6.1169C-3.84653 -5.84261 -0.297394 -4.85501 4.81349 -2.63423C17.0194 2.66947 18.3435 23.8415 10.9246 30.3569C3.78283 36.6289 -45.1305 26.1888 -38.9032 25.6893C-8.63619 23.2617 1.1515 18.1178 -9.31795 6.22851C-11.8403 3.36411 -10.2525 -6.51577 -6.45675 -6.1169Z" fill="#84DBFF"/>
</g>
<g filter="url(#filter2_f_2006_1263)">
<path d="M33.5295 48.8001C46.5191 42.5825 23.1974 -2.49675 26.9743 12.2655C29.4265 21.8501 20.8682 20.417 21.7358 25.707C22.2934 29.1067 22.4549 31.7602 22.132 33.8482C21.6871 36.7254 21.511 41.6967 22.8706 44.2711C24.9313 48.1727 26.6617 52.0874 33.5295 48.8001Z" fill="#B0009A"/>
</g>
<g filter="url(#filter3_f_2006_1263)">
<path d="M37.3555 4.74007C31.7239 -2.82383 8.42239 16.3744 16.6289 12.5199C21.9571 10.0174 22.3825 15.5532 25.3958 14.4782C26.0561 14.2426 26.6718 14.0447 27.2475 13.8859C30.1601 13.0829 36.9802 12.2822 38.463 9.64993C39.1115 8.49874 39.063 7.03338 37.3555 4.74007Z" fill="#FF4CE9"/>
</g>
<g filter="url(#filter4_f_2006_1263)">
<path d="M32.0528 23.5663C26.7611 14.5952 -17.548 39.0573 -3.23314 33.9872C6.06088 30.6954 4.25693 37.4275 9.36204 35.9808C12.8358 34.9963 15.4868 34.4743 17.515 34.4629C20.0655 34.4485 23.9034 34.2686 26.1017 32.9751C30.2368 30.5418 35.1142 28.7562 32.0528 23.5663Z" fill="#1C38FF"/>
</g>
<path d="M-2.35449 -0.356074C-2.35449 -2.41926 -0.681952 -4.0918 1.38123 -4.0918H32.3959C34.4591 -4.0918 36.1316 -2.41926 36.1316 -0.356073V32.3789C36.1316 34.4421 34.4591 36.1147 32.3959 36.1147H1.38123C-0.68195 36.1147 -2.35449 34.4421 -2.35449 32.3789V-0.356074Z" fill="white"/>
</g>
<mask id="mask1_2006_1263" style="mask-type:alpha" maskUnits="userSpaceOnUse" x="0" y="0" width="36" height="32">
<path d="M35.0532 14.3536C35.7205 15.5094 35.7205 16.9334 35.0532 18.0893L28.1327 30.0759C27.4654 31.2318 26.2321 31.9438 24.8975 31.9438L11.0565 31.9438C9.72183 31.9438 8.48856 31.2318 7.82124 30.0759L0.900737 18.0893C0.233413 16.9334 0.233417 15.5094 0.900741 14.3536L7.82124 2.36688C8.48856 1.21105 9.72183 0.499022 11.0565 0.499022L24.8975 0.499023C26.2321 0.499023 27.4654 1.21105 28.1327 2.36688L35.0532 14.3536Z" fill="#D9D9D9"/>
</mask>
<g mask="url(#mask1_2006_1263)">
<g filter="url(#filter5_f_2006_1263)">
<path d="M26.3147 19.7051C40.5005 12.9149 15.0309 -36.316 19.1557 -20.1941C21.8338 -9.72692 12.4873 -11.292 13.4348 -5.51476C14.7775 2.67254 14.0172 6.89709 10.1185 9.27576C16.4624 12.562 14.966 25.1373 26.3147 19.7051Z" fill="#D6FFF4"/>
</g>
<g filter="url(#filter6_f_2006_1263)">
<path d="M-19.6408 -3.00755C-11.5564 -1.94965 -14.3512 -10.9617 4.81349 -2.63424C17.0194 2.66947 18.3435 23.8415 10.9246 30.3569C3.78283 36.6289 -45.1305 26.1888 -38.9032 25.6893C-1.73263 22.708 4.551 15.63 -19.6408 -3.00755Z" fill="#00AAF0"/>
</g>
<g filter="url(#filter7_f_2006_1263)">
<path d="M33.5299 48.8001C46.5194 42.5825 23.1977 -2.49673 26.9747 12.2655C29.4269 21.8501 20.8686 20.417 21.7362 25.707C22.9657 33.2039 22.2695 37.0722 18.6996 39.2503C24.5085 42.2594 23.1383 53.7742 33.5299 48.8001Z" fill="#B0009A"/>
</g>
<g filter="url(#filter8_f_2006_1263)">
<path d="M37.3557 4.73999C31.724 -2.82391 8.42255 16.3743 16.6291 12.5198C21.9573 10.0173 22.3827 15.5532 25.396 14.4781C29.6663 12.9545 32.0683 13.0068 33.8948 15.0387C34.8159 11.0779 41.8611 10.7911 37.3557 4.73999Z" fill="#F900DA"/>
</g>
<g filter="url(#filter9_f_2006_1263)">
<path d="M32.0526 23.5663C26.7609 14.5953 -17.5481 39.0574 -3.23332 33.9873C6.06069 30.6954 4.25674 37.4276 9.36186 35.9808C16.5967 33.9306 20.2624 33.8862 22.1658 36.282C25.3386 31.4101 36.286 30.7432 32.0526 23.5663Z" fill="#1C38FF"/>
</g>
<rect x="-11.1592" y="-10.0073" width="47.4699" height="48.539" fill="#090F1D"/>
</g>
<path fill-rule="evenodd" clip-rule="evenodd" d="M10.3818 21.4998C10.1215 21.4998 9.85957 21.4168 9.63832 21.2476C9.10474 20.836 9.00388 20.0698 9.41546 19.5362L14.2844 13.2081C14.4829 12.9494 14.7773 12.7818 15.0994 12.7412C15.428 12.6989 15.7501 12.79 16.0055 12.9933L20.5931 16.5966L24.6063 11.4186C25.0195 10.8834 25.7841 10.7842 26.3177 11.2006C26.8513 11.6138 26.9489 12.38 26.5357 12.912L21.7692 19.0612C21.5707 19.3182 21.2779 19.4858 20.9558 19.5248C20.6305 19.5688 20.3084 19.4744 20.0513 19.2743L15.4671 15.6726L11.3497 21.0231C11.1089 21.3354 10.7478 21.4998 10.3818 21.4998Z" fill="white"/>
<path d="M48.4439 24H44.4963L50.5113 6.57605H55.2586L61.2651 24H57.3175L52.953 10.5577H52.8169L48.4439 24ZM48.1972 17.1512H57.5217V20.0269H48.1972V17.1512ZM67.0462 6.57605V24H63.3623V6.57605H67.0462ZM77.598 5.7593L71.9828 26.6204H68.8605L74.4756 5.7593H77.598ZM79.4122 6.57605H83.9554L88.7538 18.2828H88.958L93.7564 6.57605H98.2995V24H94.7263V12.6591H94.5816L90.0725 23.9149H87.6393L83.1302 12.6166H82.9855V24H79.4122V6.57605ZM101.335 24V6.57605H105.019V20.9627H112.488V24H101.335ZM123.476 24H119.529L125.544 6.57605H130.291L136.297 24H132.35L127.985 10.5577H127.849L123.476 24ZM123.229 17.1512H132.554V20.0269H123.229V17.1512ZM138.395 24V6.57605H145.269C146.59 6.57605 147.716 6.82845 148.646 7.33325C149.577 7.83237 150.286 8.52717 150.773 9.41765C151.267 10.3025 151.514 11.3234 151.514 12.4805C151.514 13.6375 151.264 14.6584 150.765 15.5433C150.266 16.4281 149.543 17.1172 148.595 17.6107C147.654 18.1041 146.514 18.3508 145.175 18.3508H140.794V15.3986H144.58C145.289 15.3986 145.873 15.2767 146.332 15.0328C146.797 14.7832 147.143 14.4401 147.37 14.0034C147.603 13.5609 147.719 13.0533 147.719 12.4805C147.719 11.9019 147.603 11.3971 147.37 10.9661C147.143 10.5293 146.797 10.1919 146.332 9.95364C145.867 9.70975 145.277 9.58781 144.563 9.58781H142.078V24H138.395ZM157.59 6.57605V24H153.906V6.57605H157.59Z" fill="#090F1D"/>
<defs>
<filter id="filter0_f_2006_1263" x="-25.7855" y="-62.527" width="95.5515" height="122.685" filterUnits="userSpaceOnUse" color-interpolation-filters="sRGB">
<feFlood flood-opacity="0" result="BackgroundImageFix"/>
<feBlend mode="normal" in="SourceGraphic" in2="BackgroundImageFix" result="shape"/>
<feGaussianBlur stdDeviation="19.5544" result="effect1_foregroundBlur_2006_1263"/>
</filter>
<filter id="filter1_f_2006_1263" x="-98.9884" y="-65.6674" width="174.021" height="157.563" filterUnits="userSpaceOnUse" color-interpolation-filters="sRGB">
<feFlood flood-opacity="0" result="BackgroundImageFix"/>
<feBlend mode="normal" in="SourceGraphic" in2="BackgroundImageFix" result="shape"/>
<feGaussianBlur stdDeviation="29.7694" result="effect1_foregroundBlur_2006_1263"/>
</filter>
<filter id="filter2_f_2006_1263" x="-14.1369" y="-26.4975" width="87.4535" height="112.339" filterUnits="userSpaceOnUse" color-interpolation-filters="sRGB">
<feFlood flood-opacity="0" result="BackgroundImageFix"/>
<feBlend mode="normal" in="SourceGraphic" in2="BackgroundImageFix" result="shape"/>
<feGaussianBlur stdDeviation="17.9054" result="effect1_foregroundBlur_2006_1263"/>
</filter>
<filter id="filter3_f_2006_1263" x="-20.9147" y="-32.8532" width="95.5731" height="83.2823" filterUnits="userSpaceOnUse" color-interpolation-filters="sRGB">
<feFlood flood-opacity="0" result="BackgroundImageFix"/>
<feBlend mode="normal" in="SourceGraphic" in2="BackgroundImageFix" result="shape"/>
<feGaussianBlur stdDeviation="17.9054" result="effect1_foregroundBlur_2006_1263"/>
</filter>
<filter id="filter4_f_2006_1263" x="-41.8776" y="-14.2411" width="110.702" height="86.2396" filterUnits="userSpaceOnUse" color-interpolation-filters="sRGB">
<feFlood flood-opacity="0" result="BackgroundImageFix"/>
<feBlend mode="normal" in="SourceGraphic" in2="BackgroundImageFix" result="shape"/>
<feGaussianBlur stdDeviation="17.9054" result="effect1_foregroundBlur_2006_1263"/>
</filter>
<filter id="filter5_f_2006_1263" x="-28.9901" y="-62.5272" width="98.7556" height="122.685" filterUnits="userSpaceOnUse" color-interpolation-filters="sRGB">
<feFlood flood-opacity="0" result="BackgroundImageFix"/>
<feBlend mode="normal" in="SourceGraphic" in2="BackgroundImageFix" result="shape"/>
<feGaussianBlur stdDeviation="19.5544" result="effect1_foregroundBlur_2006_1263"/>
</filter>
<filter id="filter6_f_2006_1263" x="-98.9884" y="-65.7389" width="174.021" height="157.634" filterUnits="userSpaceOnUse" color-interpolation-filters="sRGB">
<feFlood flood-opacity="0" result="BackgroundImageFix"/>
<feBlend mode="normal" in="SourceGraphic" in2="BackgroundImageFix" result="shape"/>
<feGaussianBlur stdDeviation="29.7694" result="effect1_foregroundBlur_2006_1263"/>
</filter>
<filter id="filter7_f_2006_1263" x="-17.111" y="-26.4975" width="90.4276" height="112.339" filterUnits="userSpaceOnUse" color-interpolation-filters="sRGB">
<feFlood flood-opacity="0" result="BackgroundImageFix"/>
<feBlend mode="normal" in="SourceGraphic" in2="BackgroundImageFix" result="shape"/>
<feGaussianBlur stdDeviation="17.9054" result="effect1_foregroundBlur_2006_1263"/>
</filter>
<filter id="filter8_f_2006_1263" x="-20.9142" y="-32.8532" width="95.5731" height="83.7028" filterUnits="userSpaceOnUse" color-interpolation-filters="sRGB">
<feFlood flood-opacity="0" result="BackgroundImageFix"/>
<feBlend mode="normal" in="SourceGraphic" in2="BackgroundImageFix" result="shape"/>
<feGaussianBlur stdDeviation="17.9054" result="effect1_foregroundBlur_2006_1263"/>
</filter>
<filter id="filter9_f_2006_1263" x="-41.8776" y="-14.2411" width="110.701" height="86.3339" filterUnits="userSpaceOnUse" color-interpolation-filters="sRGB">
<feFlood flood-opacity="0" result="BackgroundImageFix"/>
<feBlend mode="normal" in="SourceGraphic" in2="BackgroundImageFix" result="shape"/>
<feGaussianBlur stdDeviation="17.9054" result="effect1_foregroundBlur_2006_1263"/>
</filter>
</defs>
</svg>
